<svg width="128" height="128" viewBox="0 0 128 128" xmlns="http://www.w3.org/2000/svg">
  <defs>
    <linearGradient id="greenGradient" x1="0%" y1="0%" x2="100%" y2="100%">
      <stop offset="0%" style="stop-color:#4CAF50;stop-opacity:1" />
      <stop offset="50%" style="stop-color:#66BB6A;stop-opacity:1" />
      <stop offset="100%" style="stop-color:#81C784;stop-opacity:1" />
    </linearGradient>
  </defs>
  
  <!-- Outer ring -->
  <path d="M64 8 C 94.9 8 120 33.1 120 64 C 120 94.9 94.9 120 64 120 C 33.1 120 8 94.9 8 64 C 8 33.1 33.1 8 64 8 Z M64 24 C 42 24 24 42 24 64 C 24 86 42 104 64 104 C 86 104 104 86 104 64 C 104 42 86 24 64 24 Z" fill="url(#greenGradient)"/>
  
  <!-- Inner curved elements -->
  <path d="M40 48 C 52 36 72 36 84 48 C 96 60 96 80 84 92 C 72 104 52 104 40 92 C 28 80 28 60 40 48 Z M48 56 C 40 64 40 76 48 84 C 56 92 68 92 76 84 C 84 76 84 64 76 56 C 68 48 56 48 48 56 Z" fill="white"/>
  
  <!-- Additional curved accent -->
  <path d="M32 40 C 48 24 80 24 96 40 C 104 48 104 56 96 64" stroke="white" stroke-width="4" fill="none" stroke-linecap="round"/>
  <path d="M32 88 C 48 104 80 104 96 88 C 104 80 104 72 96 64" stroke="white" stroke-width="4" fill="none" stroke-linecap="round"/>
</svg>
