<?xml version="1.0" encoding="UTF-8"?>
<svg width="48" height="48" viewBox="0 0 48 48" xmlns="http://www.w3.org/2000/svg">
  <defs>
    <!-- Gradiente principal do Symplifika -->
    <linearGradient id="symplifikaGrad" x1="0%" y1="0%" x2="100%" y2="100%">
      <stop offset="0%" style="stop-color:#00ff57;stop-opacity:1" />
      <stop offset="100%" style="stop-color:#00c853;stop-opacity:1" />
    </linearGradient>
    
    <!-- Padrão mesh de fundo -->
    <pattern id="meshPattern" x="0" y="0" width="12" height="12" patternUnits="userSpaceOnUse">
      <g fill="none" fill-rule="evenodd">
        <g fill="#ffffff" fill-opacity="0.1">
          <path d="M7 7v-1h-1v1h-1v1h1v1h1v-1h1v-1h-1zm0-6V0h-1v1h-1v1h1v1h1V2h1V1h-1zM1 7v-1H0v1H0v1h1v1h1v-1h1v-1H1zM1 1V0H0v1H0v1h1v1h1V2h1V1H1z"/>
        </g>
      </g>
    </pattern>
    
    <!-- Sombra -->
    <filter id="shadow" x="-50%" y="-50%" width="200%" height="200%">
      <feDropShadow dx="0" dy="2" stdDeviation="3" flood-color="#000000" flood-opacity="0.2"/>
    </filter>
  </defs>
  
  <!-- Fundo com gradiente -->
  <circle cx="24" cy="24" r="23" fill="url(#symplifikaGrad)" filter="url(#shadow)"/>
  
  <!-- Padrão mesh -->
  <circle cx="24" cy="24" r="23" fill="url(#meshPattern)"/>
  
  <!-- Letra S estilizada -->
  <text x="24" y="32" 
        font-family="Poppins, Arial, sans-serif" 
        font-size="21.0" 
        font-weight="700" 
        text-anchor="middle" 
        fill="white"
        style="text-shadow: 0 1px 2px rgba(0,0,0,0.3);">S</text>
  
  <!-- Borda sutil -->
  <circle cx="24" cy="24" r="23" 
          fill="none" 
          stroke="rgba(255,255,255,0.2)" 
          stroke-width="1"/>
</svg>